<svg xmlns="http://www.w3.org/2000/svg" viewBox="0 0 512 512">
  <defs>
    <linearGradient id="collab" x1="0" y1="0" x2="1" y2="1">
      <stop offset="0" stop-color="#34D399"/>
      <stop offset="1" stop-color="#10B981"/>
    </linearGradient>
  </defs>
  <rect width="512" height="512" rx="48" fill="url(#collab)"/>
  <g fill="#ffffff" opacity="0.95">
    <path d="M122 256c20-40 60-64 100-64h32v40h-32c-20 0-40 12-52 32z"/>
    <path d="M390 256c-20-40-60-64-100-64h-32v40h32c20 0 40 12 52 32z"/>
    <path d="M152 296l48 40c20 16 48 16 68 0l48-40 24 28-52 44c-30 25-75 25-105 0l-52-44z"/>
  </g>
</svg>
