<svg xmlns="http://www.w3.org/2000/svg" viewBox="0 0 512 512">
  <defs>
    <linearGradient id="dockGrad" x1="0" y1="0" x2="1" y2="1">
      <stop offset="0" stop-color="#2496ED"/>
      <stop offset="1" stop-color="#1D63ED"/>
    </linearGradient>
  </defs>
  <rect width="512" height="512" rx="64" fill="url(#dockGrad)"/>
  <g fill="#ffffff" opacity="0.95">
    <rect x="96" y="220" width="48" height="36" rx="6"/>
    <rect x="152" y="220" width="48" height="36" rx="6"/>
    <rect x="208" y="220" width="48" height="36" rx="6"/>
    <rect x="264" y="220" width="48" height="36" rx="6"/>
    <rect x="152" y="176" width="48" height="36" rx="6"/>
    <rect x="208" y="176" width="48" height="36" rx="6"/>
    <rect x="264" y="176" width="48" height="36" rx="6"/>
    <path d="M96 284h320c-6 34-28 60-64 76-42 19-99 20-144 10-66-14-101-50-112-86z"/>
    <circle cx="368" cy="208" r="14"/>
  </g>
</svg>
