<svg xmlns="http://www.w3.org/2000/svg" viewBox="0 0 512 512">
  <rect width="512" height="512" rx="100" fill="#0d1117"/>
  <path fill="#fff" d="M335 449c-10 2-14-4-14-10v-52c0-18-6-30-13-36 43-5 88-21 88-96 0-21-7-38-20-52 2-5 9-26-2-54 0 0-16-5-54 20-15-4-31-6-46-6s-31 2-46 6c-38-25-54-20-54-20-11 28-4 49-2 54-13 14-20 31-20 52 0 75 45 91 88 96-6 5-11 13-12 25-11 5-38 13-55-15 0 0-10-18-29-19 0 0-18 0-1 12 0 0 12 6 21 28 0 0 11 35 62 24v30c0 6-4 12-14 10 83-27 143-62 143-155 0-66-46-119-117-119s-117 53-117 119c0 93 60 128 143 155z"/>
</svg>
